<mxfile host="app.diagrams.net" modified="2023-04-17T01:31:36.901Z" agent="Mozilla/5.0 (Windows NT 10.0; Win64; x64) AppleWebKit/537.36 (KHTML, like Gecko) Chrome/112.0.0.0 Safari/537.36 Edg/112.0.1722.48" etag="Vpr9i2ssVJejnTO4QbWc" version="21.1.2" type="github">
  <diagram name="Page-1" id="42789a77-a242-8287-6e28-9cd8cfd52e62">
    <mxGraphModel dx="1121" dy="607" grid="1" gridSize="10" guides="1" tooltips="1" connect="1" arrows="1" fold="1" page="1" pageScale="1" pageWidth="1100" pageHeight="850" background="none" math="0" shadow="0">
      <root>
        <mxCell id="0" />
        <mxCell id="1" parent="0" />
        <mxCell id="hQ9OTcFgXKa0fK0UkeyK-3" value="&#xa;&#xa;&#xa;&#xa;&#xa;&#xa;&#xa;&#xa;Museu&#xa;Virtual&#xa;" style="swimlane;startSize=0;" vertex="1" parent="1">
          <mxGeometry x="430" y="30" width="120" height="130" as="geometry" />
        </mxCell>
        <mxCell id="hQ9OTcFgXKa0fK0UkeyK-5" value="" style="endArrow=classic;startArrow=classic;html=1;rounded=0;entryX=0.5;entryY=0;entryDx=0;entryDy=0;" edge="1" parent="1" source="hQ9OTcFgXKa0fK0UkeyK-3">
          <mxGeometry width="50" height="50" relative="1" as="geometry">
            <mxPoint x="280" y="390" as="sourcePoint" />
            <mxPoint x="490" y="320" as="targetPoint" />
          </mxGeometry>
        </mxCell>
        <mxCell id="hQ9OTcFgXKa0fK0UkeyK-6" value="" style="endArrow=classic;startArrow=classic;html=1;rounded=0;exitX=1;exitY=0.5;exitDx=0;exitDy=0;entryX=0;entryY=0.5;entryDx=0;entryDy=0;" edge="1" parent="1" source="hQ9OTcFgXKa0fK0UkeyK-13" target="hQ9OTcFgXKa0fK0UkeyK-7">
          <mxGeometry width="50" height="50" relative="1" as="geometry">
            <mxPoint x="580" y="387" as="sourcePoint" />
            <mxPoint x="720" y="383" as="targetPoint" />
          </mxGeometry>
        </mxCell>
        <mxCell id="hQ9OTcFgXKa0fK0UkeyK-7" value="&#xa;&#xa;&#xa;&#xa;&#xa;&#xa;&#xa;&#xa;&#xa;PROFAC" style="swimlane;startSize=0;" vertex="1" parent="1">
          <mxGeometry x="770" y="310" width="120" height="130" as="geometry" />
        </mxCell>
        <mxCell id="hQ9OTcFgXKa0fK0UkeyK-8" value="&#xa;&#xa;&#xa;&#xa;&#xa;&#xa;&#xa;&#xa;&#xa;Lei de&#xa;Incentivo a&#xa;cultura" style="swimlane;startSize=0;" vertex="1" parent="1">
          <mxGeometry x="430" y="680" width="120" height="130" as="geometry" />
        </mxCell>
        <mxCell id="hQ9OTcFgXKa0fK0UkeyK-10" value="" style="endArrow=classic;startArrow=classic;html=1;rounded=0;exitX=0.433;exitY=-0.015;exitDx=0;exitDy=0;exitPerimeter=0;" edge="1" parent="1" source="hQ9OTcFgXKa0fK0UkeyK-8" target="hQ9OTcFgXKa0fK0UkeyK-13">
          <mxGeometry width="50" height="50" relative="1" as="geometry">
            <mxPoint x="250" y="554" as="sourcePoint" />
            <mxPoint x="490" y="490" as="targetPoint" />
          </mxGeometry>
        </mxCell>
        <mxCell id="hQ9OTcFgXKa0fK0UkeyK-11" value="&#xa;&#xa;&#xa;&#xa;&#xa;&#xa;&#xa;&#xa;Editais &#xa;&amp;&#xa;Regulamentos" style="swimlane;startSize=0;" vertex="1" parent="1">
          <mxGeometry x="110" y="310" width="120" height="130" as="geometry" />
        </mxCell>
        <mxCell id="hQ9OTcFgXKa0fK0UkeyK-12" value="" style="endArrow=classic;startArrow=classic;html=1;rounded=0;exitX=1;exitY=0.5;exitDx=0;exitDy=0;entryX=0;entryY=0.5;entryDx=0;entryDy=0;" edge="1" parent="1" source="hQ9OTcFgXKa0fK0UkeyK-11" target="hQ9OTcFgXKa0fK0UkeyK-13">
          <mxGeometry width="50" height="50" relative="1" as="geometry">
            <mxPoint x="290" y="400" as="sourcePoint" />
            <mxPoint x="399.04999999999995" y="389.02" as="targetPoint" />
          </mxGeometry>
        </mxCell>
        <mxCell id="hQ9OTcFgXKa0fK0UkeyK-13" value="&#xa;&#xa;&#xa;&#xa;&#xa;&#xa;&#xa;&#xa;&#xa;Mapeamento&#xa;e cadastro de&#xa;artistas &#xa;e profissionais&#xa;de arte, cultura&#xa;turismo&#xa;" style="swimlane;startSize=0;" vertex="1" parent="1">
          <mxGeometry x="430" y="320" width="120" height="130" as="geometry" />
        </mxCell>
        <mxCell id="hQ9OTcFgXKa0fK0UkeyK-14" value="&#xa;&#xa;&#xa;&#xa;&#xa;&#xa;&#xa;&#xa;&#xa;Salão das&#xa;Artes&#xa;&#xa;" style="swimlane;startSize=0;" vertex="1" parent="1">
          <mxGeometry x="610" y="40" width="120" height="130" as="geometry" />
        </mxCell>
        <mxCell id="hQ9OTcFgXKa0fK0UkeyK-15" value="" style="endArrow=classic;startArrow=classic;html=1;rounded=0;entryX=1.033;entryY=0.146;entryDx=0;entryDy=0;entryPerimeter=0;exitX=0.417;exitY=1;exitDx=0;exitDy=0;exitPerimeter=0;" edge="1" parent="1" source="hQ9OTcFgXKa0fK0UkeyK-14" target="hQ9OTcFgXKa0fK0UkeyK-13">
          <mxGeometry width="50" height="50" relative="1" as="geometry">
            <mxPoint x="660" y="240" as="sourcePoint" />
            <mxPoint x="660" y="340" as="targetPoint" />
          </mxGeometry>
        </mxCell>
        <mxCell id="hQ9OTcFgXKa0fK0UkeyK-16" value="&#xa;&#xa;&#xa;&#xa;&#xa;&#xa;&#xa;&#xa;&#xa;Mogi feito&#xa;a mão " style="swimlane;startSize=0;" vertex="1" parent="1">
          <mxGeometry x="770" y="650" width="120" height="130" as="geometry" />
        </mxCell>
        <mxCell id="hQ9OTcFgXKa0fK0UkeyK-18" value="" style="endArrow=classic;startArrow=classic;html=1;rounded=0;entryX=0;entryY=0.5;entryDx=0;entryDy=0;exitX=1.025;exitY=0.869;exitDx=0;exitDy=0;exitPerimeter=0;" edge="1" parent="1" source="hQ9OTcFgXKa0fK0UkeyK-13" target="hQ9OTcFgXKa0fK0UkeyK-16">
          <mxGeometry width="50" height="50" relative="1" as="geometry">
            <mxPoint x="520" y="470" as="sourcePoint" />
            <mxPoint x="570" y="420" as="targetPoint" />
          </mxGeometry>
        </mxCell>
        <mxCell id="hQ9OTcFgXKa0fK0UkeyK-19" value="&#xa;&#xa;&#xa;&#xa;&#xa;&#xa;&#xa;&#xa;&#xa;Festmec" style="swimlane;startSize=0;" vertex="1" parent="1">
          <mxGeometry x="250" y="30" width="120" height="130" as="geometry" />
        </mxCell>
        <mxCell id="hQ9OTcFgXKa0fK0UkeyK-21" value="" style="endArrow=classic;startArrow=classic;html=1;rounded=0;entryX=-0.042;entryY=0.185;entryDx=0;entryDy=0;entryPerimeter=0;exitX=0.567;exitY=0.977;exitDx=0;exitDy=0;exitPerimeter=0;" edge="1" parent="1" source="hQ9OTcFgXKa0fK0UkeyK-19" target="hQ9OTcFgXKa0fK0UkeyK-13">
          <mxGeometry width="50" height="50" relative="1" as="geometry">
            <mxPoint x="299.5" y="260" as="sourcePoint" />
            <mxPoint x="299.5" y="360" as="targetPoint" />
          </mxGeometry>
        </mxCell>
        <mxCell id="hQ9OTcFgXKa0fK0UkeyK-24" value="&#xa;&#xa;&#xa;&#xa;&#xa;&#xa;&#xa;&#xa;&#xa;Festmec" style="swimlane;startSize=0;" vertex="1" parent="1">
          <mxGeometry x="110" y="460" width="120" height="130" as="geometry" />
        </mxCell>
        <mxCell id="hQ9OTcFgXKa0fK0UkeyK-25" value="" style="endArrow=classic;startArrow=classic;html=1;rounded=0;entryX=0;entryY=0.654;entryDx=0;entryDy=0;exitX=1;exitY=0.5;exitDx=0;exitDy=0;entryPerimeter=0;" edge="1" parent="1" source="hQ9OTcFgXKa0fK0UkeyK-24" target="hQ9OTcFgXKa0fK0UkeyK-13">
          <mxGeometry width="50" height="50" relative="1" as="geometry">
            <mxPoint x="300" y="460" as="sourcePoint" />
            <mxPoint x="407" y="527" as="targetPoint" />
          </mxGeometry>
        </mxCell>
        <mxCell id="hQ9OTcFgXKa0fK0UkeyK-27" value="&#xa;&#xa;&#xa;&#xa;&#xa;&#xa;&#xa;&#xa;&#xa;Piripimpim" style="swimlane;startSize=0;" vertex="1" parent="1">
          <mxGeometry x="250" y="680" width="120" height="130" as="geometry" />
        </mxCell>
        <mxCell id="hQ9OTcFgXKa0fK0UkeyK-31" value="" style="endArrow=classic;startArrow=classic;html=1;rounded=0;entryX=0.175;entryY=1.062;entryDx=0;entryDy=0;entryPerimeter=0;exitX=0.417;exitY=0.015;exitDx=0;exitDy=0;exitPerimeter=0;" edge="1" parent="1" source="hQ9OTcFgXKa0fK0UkeyK-27" target="hQ9OTcFgXKa0fK0UkeyK-13">
          <mxGeometry width="50" height="50" relative="1" as="geometry">
            <mxPoint x="173" y="600" as="sourcePoint" />
            <mxPoint x="447" y="480" as="targetPoint" />
          </mxGeometry>
        </mxCell>
        <mxCell id="hQ9OTcFgXKa0fK0UkeyK-32" value="&#xa;&#xa;&#xa;&#xa;&#xa;&#xa;&#xa;&#xa;&#xa;Circuito &#xa;Cultural&#xa;Paulista" style="swimlane;startSize=0;" vertex="1" parent="1">
          <mxGeometry x="590" y="680" width="120" height="130" as="geometry" />
        </mxCell>
        <mxCell id="hQ9OTcFgXKa0fK0UkeyK-33" value="" style="endArrow=classic;startArrow=classic;html=1;rounded=0;entryX=0.442;entryY=-0.015;entryDx=0;entryDy=0;exitX=1.025;exitY=0.869;exitDx=0;exitDy=0;exitPerimeter=0;entryPerimeter=0;" edge="1" parent="1" target="hQ9OTcFgXKa0fK0UkeyK-32">
          <mxGeometry width="50" height="50" relative="1" as="geometry">
            <mxPoint x="520" y="450" as="sourcePoint" />
            <mxPoint x="687" y="612" as="targetPoint" />
          </mxGeometry>
        </mxCell>
        <mxCell id="hQ9OTcFgXKa0fK0UkeyK-35" value="&#xa;&#xa;&#xa;&#xa;&#xa;&#xa;&#xa;&#xa;&#xa;Premio jovem&#xa;músico&#xa;mogiano" style="swimlane;startSize=0;" vertex="1" parent="1">
          <mxGeometry x="770" y="160" width="120" height="130" as="geometry" />
        </mxCell>
        <mxCell id="hQ9OTcFgXKa0fK0UkeyK-36" value="" style="endArrow=classic;startArrow=classic;html=1;rounded=0;entryX=1;entryY=0.25;entryDx=0;entryDy=0;exitX=0;exitY=0.5;exitDx=0;exitDy=0;" edge="1" parent="1" source="hQ9OTcFgXKa0fK0UkeyK-35" target="hQ9OTcFgXKa0fK0UkeyK-13">
          <mxGeometry width="50" height="50" relative="1" as="geometry">
            <mxPoint x="710" y="170" as="sourcePoint" />
            <mxPoint x="564" y="349" as="targetPoint" />
          </mxGeometry>
        </mxCell>
        <mxCell id="hQ9OTcFgXKa0fK0UkeyK-37" value="&#xa;&#xa;&#xa;&#xa;&#xa;&#xa;&#xa;&#xa;&#xa;Diálogo&#xa;Aberto" style="swimlane;startSize=0;" vertex="1" parent="1">
          <mxGeometry x="110" y="150" width="120" height="130" as="geometry" />
        </mxCell>
        <mxCell id="hQ9OTcFgXKa0fK0UkeyK-39" value="" style="endArrow=classic;startArrow=classic;html=1;rounded=0;entryX=-0.042;entryY=0.354;entryDx=0;entryDy=0;entryPerimeter=0;exitX=0.992;exitY=0.554;exitDx=0;exitDy=0;exitPerimeter=0;" edge="1" parent="1" source="hQ9OTcFgXKa0fK0UkeyK-37" target="hQ9OTcFgXKa0fK0UkeyK-13">
          <mxGeometry width="50" height="50" relative="1" as="geometry">
            <mxPoint x="263" y="220" as="sourcePoint" />
            <mxPoint x="370" y="387" as="targetPoint" />
          </mxGeometry>
        </mxCell>
        <mxCell id="hQ9OTcFgXKa0fK0UkeyK-40" value="&#xa;&#xa;&#xa;&#xa;&#xa;&#xa;&#xa;&#xa;&#xa;Mogi revela " style="swimlane;startSize=0;" vertex="1" parent="1">
          <mxGeometry x="770" y="480" width="120" height="130" as="geometry" />
        </mxCell>
        <mxCell id="hQ9OTcFgXKa0fK0UkeyK-41" value="" style="endArrow=classic;startArrow=classic;html=1;rounded=0;exitX=0.975;exitY=0.662;exitDx=0;exitDy=0;entryX=-0.05;entryY=0.477;entryDx=0;entryDy=0;entryPerimeter=0;exitPerimeter=0;" edge="1" parent="1" source="hQ9OTcFgXKa0fK0UkeyK-13" target="hQ9OTcFgXKa0fK0UkeyK-40">
          <mxGeometry width="50" height="50" relative="1" as="geometry">
            <mxPoint x="550" y="420" as="sourcePoint" />
            <mxPoint x="850" y="430" as="targetPoint" />
          </mxGeometry>
        </mxCell>
        <mxCell id="hQ9OTcFgXKa0fK0UkeyK-43" value="&#xa;&#xa;&#xa;&#xa;&#xa;&#xa;&#xa;&#xa;&#xa;Mogi das Cruzes&#xa;Turismo" style="swimlane;startSize=0;" vertex="1" parent="1">
          <mxGeometry x="110" y="610" width="120" height="130" as="geometry" />
        </mxCell>
        <mxCell id="hQ9OTcFgXKa0fK0UkeyK-44" value="" style="endArrow=classic;startArrow=classic;html=1;rounded=0;entryX=-0.042;entryY=0.892;entryDx=0;entryDy=0;exitX=1.058;exitY=0.323;exitDx=0;exitDy=0;exitPerimeter=0;entryPerimeter=0;" edge="1" parent="1" source="hQ9OTcFgXKa0fK0UkeyK-43" target="hQ9OTcFgXKa0fK0UkeyK-13">
          <mxGeometry width="50" height="50" relative="1" as="geometry">
            <mxPoint x="230" y="590" as="sourcePoint" />
            <mxPoint x="430" y="483" as="targetPoint" />
          </mxGeometry>
        </mxCell>
      </root>
    </mxGraphModel>
  </diagram>
</mxfile>
